# xmcd
#
# Track frame offsets:
#	150
#	12733
#	26073
#	42513
#	55933
#	69287
#	88200
#	103072
#	114375
#	124957
#	143765
#	167136
#	185727
#
# Disc length: 2751 seconds
#
# Revision: 0
# Processed by: cddbd v1.5PL3 Copyright (c) Steve Scherf et al.
# Submitted via: audiograbber 1.83.01
#
DISCID=bf0abd0d
DTITLE=Ivailo Gurov - A touch of golden evergreens
DYEAR=2004
DGENRE=Pop
TTITLE0=Don't
TTITLE1=Love me tender
TTITLE2=Release me
TTITLE3=Are you lonesome tonight
TTITLE4=Can't help falling in love
TTITLE5=An american trilogy
TTITLE6=Delilah
TTITLE7=You are my destiny
TTITLE8=Oh, carol
TTITLE9=Con te partiro
TTITLE10=Caruso
TTITLE11=Io cantro
TTITLE12=Un amore grande
EXTD=
EXTT0=
EXTT1=
EXTT2=
EXTT3=
EXTT4=
EXTT5=
EXTT6=
EXTT7=
EXTT8=
EXTT9=
EXTT10=
EXTT11=
EXTT12=
PLAYORDER=
